<svg width="163" height="48" viewBox="0 0 163 48" fill="none" xmlns="http://www.w3.org/2000/svg">
<path fill-rule="evenodd" clip-rule="evenodd" d="M10.4492 15.7703L1.13136 10.3221L19.0014 0V10.8328L10.4492 15.7703ZM27.5062 15.745L36.8802 10.3284L19.0018 0V10.8328L27.5062 15.745ZM19.0018 36.6673V47.5003L38 36.5269V25.6952L19.0018 36.6673ZM11.6181 29.8158V18.9795L19.0014 23.2481V34.0796L11.6181 29.8158ZM38 12.2701L19.0018 23.2481V34.0795L38 23.1061V12.2701ZM9.3772 31.1103V17.68L0 12.2652V36.5266L19.0014 47.5V36.6669L9.3772 31.1103ZM72.64 18.19L73.57 14.2H55.57L54.64 18.19H61.09L57.43 34H62.59L66.25 18.19H72.64ZM76.1687 12.64L71.2188 34H76.3187L78.2087 25.9C78.3688 25.18 78.5888 24.58 78.8688 24.1C79.1687 23.6 79.5188 23.23 79.9187 22.99C80.3388 22.73 80.8187 22.6 81.3587 22.6C82.0788 22.6 82.5987 22.83 82.9187 23.29C83.2388 23.73 83.3088 24.35 83.1288 25.15L81.0588 34H86.1588L88.4088 24.34C88.6687 23.18 88.6488 22.18 88.3488 21.34C88.0687 20.5 87.5687 19.85 86.8487 19.39C86.1488 18.93 85.2988 18.7 84.2988 18.7C83.2988 18.7 82.4088 18.9 81.6288 19.3C80.8487 19.7 80.1988 20.23 79.6787 20.89C79.5118 21.1019 79.3582 21.3231 79.2181 21.5536L81.2688 12.64H76.1687ZM94.06 33.43C95.18 33.99 96.48 34.27 97.96 34.27C99.08 34.27 100.11 34.13 101.05 33.85C102.01 33.55 102.84 33.13 103.54 32.59C104.26 32.05 104.79 31.4 105.13 30.64L100.93 28.99C100.69 29.49 100.35 29.91 99.91 30.25C99.47 30.57 98.89 30.73 98.17 30.73C97.59 30.73 97.08 30.62 96.64 30.4C96.22 30.16 95.88 29.82 95.62 29.38C95.3913 28.9608 95.2716 28.4508 95.2608 27.85H105.64C105.76 27.45 105.84 27.04 105.88 26.62C105.92 26.2 105.94 25.8 105.94 25.42C105.94 24.06 105.67 22.88 105.13 21.88C104.59 20.88 103.8 20.11 102.76 19.57C101.74 19.01 100.5 18.73 99.04 18.73C97.28 18.73 95.76 19.11 94.48 19.87C93.22 20.63 92.24 21.67 91.54 22.99C90.86 24.29 90.52 25.78 90.52 27.46C90.52 28.82 90.83 30.01 91.45 31.03C92.07 32.05 92.94 32.85 94.06 33.43ZM95.613 25.09C95.72 24.7542 95.8523 24.4342 96.01 24.13C96.29 23.57 96.66 23.12 97.12 22.78C97.6 22.44 98.2 22.27 98.92 22.27C99.36 22.27 99.74 22.36 100.06 22.54C100.38 22.7 100.63 22.95 100.81 23.29C100.99 23.63 101.08 24.06 101.08 24.58C101.08 24.7419 101.072 24.9119 101.056 25.09H95.613ZM118.781 14.2H109.151V34H119.231C121.631 34 123.431 33.54 124.631 32.62C125.831 31.68 126.431 30.36 126.431 28.66C126.431 27.46 126.051 26.44 125.291 25.6C124.551 24.74 123.421 24.21 121.901 24.01V23.98C123.261 23.76 124.271 23.25 124.931 22.45C125.591 21.63 125.921 20.66 125.921 19.54C125.921 17.82 125.341 16.51 124.181 15.61C123.021 14.69 121.221 14.22 118.781 14.2ZM118.361 30.37H114.131V25.99H118.361C119.301 25.99 120.001 26.18 120.461 26.56C120.921 26.92 121.151 27.45 121.151 28.15C121.151 28.87 120.921 29.42 120.461 29.8C120.001 30.18 119.301 30.37 118.361 30.37ZM117.881 22.3H114.131V17.98H117.881C119.721 17.98 120.641 18.7 120.641 20.14C120.641 21.58 119.721 22.3 117.881 22.3ZM140.579 19.63C139.399 19.01 138.019 18.7 136.439 18.7C134.899 18.7 133.529 19.01 132.329 19.63C131.129 20.23 130.189 21.12 129.509 22.3C128.849 23.46 128.519 24.86 128.519 26.5C128.519 28.14 128.849 29.55 129.509 30.73C130.189 31.89 131.129 32.78 132.329 33.4C133.529 34 134.899 34.3 136.439 34.3C138.019 34.3 139.399 34 140.579 33.4C141.779 32.78 142.709 31.89 143.369 30.73C144.049 29.55 144.389 28.14 144.389 26.5C144.389 24.86 144.049 23.46 143.369 22.3C142.709 21.12 141.779 20.23 140.579 19.63ZM134.939 22.75C135.359 22.47 135.859 22.33 136.439 22.33C137.039 22.33 137.549 22.47 137.969 22.75C138.389 23.03 138.709 23.48 138.929 24.1C139.149 24.72 139.259 25.52 139.259 26.5C139.259 27.48 139.149 28.28 138.929 28.9C138.709 29.5 138.389 29.95 137.969 30.25C137.549 30.53 137.039 30.67 136.439 30.67C135.859 30.67 135.359 30.53 134.939 30.25C134.519 29.95 134.199 29.5 133.979 28.9C133.759 28.28 133.649 27.48 133.649 26.5C133.649 25.52 133.759 24.72 133.979 24.1C134.199 23.48 134.519 23.03 134.939 22.75ZM153.531 23.9501L150.847 19H144.967L150.169 26.4076L144.757 34H150.487L153.386 28.8223L156.247 34H162.097L156.774 26.4336L161.977 19H156.247L153.531 23.9501Z" fill="#2947A9"/>
</svg>
